<!DOCTYPE svg PUBLIC "-//W3C//DTD SVG 1.1//EN" "http://www.w3.org/Graphics/SVG/1.1/DTD/svg11.dtd">

<!-- Uploaded to: SVG Repo, www.svgrepo.com, Transformed by: SVG Repo Mixer Tools -->
<svg width="800px" height="800px" viewBox="-2.4 -2.4 28.80 28.80" xmlns="http://www.w3.org/2000/svg" fill="none">

    <g id="SVGRepo_bgCarrier" stroke-width="0">

        <path transform="translate(-2.4, -2.4), scale(0.8999999999999999)"
            d="M16,30.97062302629153C19.24894325161123,31.167673348073787,23.0490727506122,31.13555381862255,25.263289772863494,28.749824567454837C27.445487067849335,26.398595276852838,25.85357761342651,22.569419092034558,26.67516022369989,19.468569817122173C27.424797691497115,16.639258717544852,30.27940820374763,14.398215064693655,29.832205454353197,11.505644005540411C29.367838773449346,8.502054193455379,26.726474337716603,6.400541678488989,24.359957078907563,4.493506220676627C21.878572886334624,2.4939063352005597,19.186790910885623,0.35353352027619184,16.000000000000004,0.35909260685245314C12.815255831220455,0.3646481230606288,9.823698075434866,2.184632848022925,7.661206781053901,4.5226357748949635C5.725806667032437,6.615116398057879,5.8003202149547635,9.689317281001289,4.876243866396427,12.385672536100596C3.9307245641050894,15.144596020624917,1.6932380809386403,17.613318636607747,2.189956369299404,20.48715518145042C2.7106087518545565,23.49946594029985,5.083751977423425,25.82523623557163,7.518632663751287,27.67360066248748C9.995200556830774,29.553610644132092,12.896390269464163,30.782387268161457,16,30.97062302629153"
            fill="#e5b6f2" strokewidth="0" />

    </g>

    <g id="SVGRepo_tracerCarrier" stroke-linecap="round" stroke-linejoin="round" />

    <g id="SVGRepo_iconCarrier">

        <path stroke="#452153" stroke-linecap="round" stroke-linejoin="round" stroke-width="2"
            d="M5 9a2 2 0 1 0 0-4 2 2 0 0 0 0 4zm0 0v1m0 7v-1" />

        <path fill="#452153" d="M7 19a2 2 0 1 0-4 0 2 2 0 0 0 4 0z" />

        <path stroke="#452153" stroke-linecap="round" stroke-linejoin="round" stroke-width="2"
            d="M7 19a2 2 0 1 0-4 0 2 2 0 0 0 4 0zm0 0h1m9-2a2 2 0 1 1-2 2m2-2a2 2 0 0 0-2 2m2-2v-1m-2 3h-1" />

        <circle cx="5" cy="13" r="1" fill="#452153" />

        <circle cx="11" cy="19" r="1" fill="#452153" />

        <path fill="#452153" fill-rule="evenodd"
            d="m17 13-.647.763-.001-.002-.004-.002-.01-.01-.039-.033-.137-.121a20.909 20.909 0 0 1-1.923-1.967c-.525-.617-1.072-1.343-1.491-2.109C12.335 8.766 12 7.892 12 7c0-1.547.538-2.825 1.49-3.711C14.431 2.413 15.69 2 17 2c1.31 0 2.569.413 3.51 1.289C21.462 4.175 22 5.453 22 7c0 .892-.335 1.766-.748 2.52-.42.765-.965 1.491-1.49 2.108a20.909 20.909 0 0 1-2.061 2.088l-.038.033-.011.01-.004.002v.001h-.001L17 13zm0 0 .646.763a1 1 0 0 1-1.292 0L17 13zm0-5a1 1 0 1 0 0-2 1 1 0 0 0 0 2z"
            clip-rule="evenodd" />

    </g>

</svg>